<svg width="559" height="257" viewBox="0 0 559 257" fill="none" xmlns="http://www.w3.org/2000/svg">
<g filter="url(#filter0_dddd_501_12)">
<mask id="path-1-inside-1_501_12" fill="white">
<path d="M30.4077 37.0232C30.4077 20.9941 43.4019 8 59.431 8H472.353C488.382 8 501.376 20.9942 501.376 37.0233V161.455C501.376 177.484 488.382 190.478 472.353 190.478H59.4309C43.4018 190.478 30.4077 177.484 30.4077 161.455V37.0232Z"/>
</mask>
<path d="M30.4077 37.0232C30.4077 20.9941 43.4019 8 59.431 8H472.353C488.382 8 501.376 20.9942 501.376 37.0233V161.455C501.376 177.484 488.382 190.478 472.353 190.478H59.4309C43.4018 190.478 30.4077 177.484 30.4077 161.455V37.0232Z" fill="#1E1E1E"/>
<path d="M30.4077 37.0232C30.4077 20.9941 43.4019 8 59.431 8H472.353C488.382 8 501.376 20.9942 501.376 37.0233V161.455C501.376 177.484 488.382 190.478 472.353 190.478H59.4309C43.4018 190.478 30.4077 177.484 30.4077 161.455V37.0232Z" fill="url(#paint0_linear_501_12)" fill-opacity="0.32" style="mix-blend-mode:luminosity"/>
<path d="M59.431 8V9.31924H472.353V8V6.68076H59.431V8ZM501.376 37.0233H500.057V161.455H501.376H502.695V37.0233H501.376ZM472.353 190.478V189.159H59.4309V190.478V191.797H472.353V190.478ZM30.4077 161.455H31.727V37.0232H30.4077H29.0885V161.455H30.4077ZM59.4309 190.478V189.159C44.1304 189.159 31.727 176.755 31.727 161.455H30.4077H29.0885C29.0885 178.212 42.6732 191.797 59.4309 191.797V190.478ZM501.376 161.455H500.057C500.057 176.755 487.653 189.159 472.353 189.159V190.478V191.797C489.11 191.797 502.695 178.212 502.695 161.455H501.376ZM472.353 8V9.31924C487.653 9.31924 500.057 21.7227 500.057 37.0233H501.376H502.695C502.695 20.2656 489.11 6.68076 472.353 6.68076V8ZM59.431 8V6.68076C42.6733 6.68076 29.0885 20.2655 29.0885 37.0232H30.4077H31.727C31.727 21.7227 44.1305 9.31924 59.431 9.31924V8Z" fill="#D6DDE6" fill-opacity="0.2" mask="url(#path-1-inside-1_501_12)"/>
<path d="M69.7942 78.9387V53.6087H74.4182V78.9387H69.7942ZM78.5763 78.9387V60.4427H82.7583V64.0807L82.4183 63.4347C82.849 62.3241 83.5516 61.4854 84.5263 60.9187C85.5236 60.3294 86.6796 60.0347 87.9943 60.0347C89.3543 60.0347 90.5556 60.3294 91.5983 60.9187C92.6636 61.5081 93.491 62.3354 94.0803 63.4007C94.6696 64.4434 94.9643 65.6561 94.9643 67.0387V78.9387H90.5103V68.0927C90.5103 67.2767 90.3516 66.5741 90.0343 65.9847C89.717 65.3954 89.275 64.9421 88.7083 64.6247C88.1643 64.2847 87.5183 64.1147 86.7703 64.1147C86.045 64.1147 85.399 64.2847 84.8323 64.6247C84.2656 64.9421 83.8236 65.3954 83.5063 65.9847C83.189 66.5741 83.0303 67.2767 83.0303 68.0927V78.9387H78.5763ZM106.823 79.1427C104.737 79.1427 103.117 78.5761 101.961 77.4427C100.827 76.2867 100.261 74.6661 100.261 72.5807V64.4207H97.0646V60.4427H97.4046C98.3112 60.4427 99.0139 60.2047 99.5126 59.7287C100.011 59.2527 100.261 58.5614 100.261 57.6547V56.2267H104.715V60.4427H108.965V64.4207H104.715V72.3427C104.715 72.9547 104.817 73.4761 105.021 73.9067C105.247 74.3374 105.587 74.6661 106.041 74.8927C106.517 75.1194 107.117 75.2327 107.843 75.2327C108.001 75.2327 108.183 75.2214 108.387 75.1987C108.613 75.1761 108.829 75.1534 109.033 75.1307V78.9387C108.715 78.9841 108.353 79.0294 107.945 79.0747C107.537 79.1201 107.163 79.1427 106.823 79.1427ZM120.701 79.3467C118.797 79.3467 117.131 78.9161 115.703 78.0547C114.275 77.1934 113.165 76.0261 112.371 74.5527C111.578 73.0794 111.181 71.4474 111.181 69.6567C111.181 67.7981 111.578 66.1547 112.371 64.7267C113.187 63.2761 114.287 62.1314 115.669 61.2927C117.075 60.4541 118.639 60.0347 120.361 60.0347C121.812 60.0347 123.081 60.2727 124.169 60.7487C125.28 61.2247 126.221 61.8821 126.991 62.7207C127.762 63.5594 128.351 64.5227 128.759 65.6107C129.167 66.6761 129.371 67.8321 129.371 69.0787C129.371 69.3961 129.349 69.7247 129.303 70.0647C129.281 70.4047 129.224 70.6994 129.133 70.9487H114.853V67.5487H126.617L124.509 69.1467C124.713 68.1041 124.657 67.1747 124.339 66.3587C124.045 65.5427 123.546 64.8967 122.843 64.4207C122.163 63.9447 121.336 63.7067 120.361 63.7067C119.432 63.7067 118.605 63.9447 117.879 64.4207C117.154 64.8741 116.599 65.5541 116.213 66.4607C115.851 67.3447 115.715 68.4214 115.805 69.6907C115.715 70.8241 115.862 71.8327 116.247 72.7167C116.655 73.5781 117.245 74.2467 118.015 74.7227C118.809 75.1987 119.715 75.4367 120.735 75.4367C121.755 75.4367 122.617 75.2214 123.319 74.7907C124.045 74.3601 124.611 73.7821 125.019 73.0567L128.623 74.8247C128.261 75.7087 127.694 76.4907 126.923 77.1707C126.153 77.8507 125.235 78.3834 124.169 78.7687C123.127 79.1541 121.971 79.3467 120.701 79.3467ZM132.408 78.9387V53.2007H136.862V78.9387H132.408ZM140.634 78.9387V60.4427H145.088V78.9387H140.634ZM140.634 58.3687V53.6087H145.088V58.3687H140.634ZM157.837 86.4187C156.454 86.4187 155.173 86.1921 153.995 85.7387C152.816 85.2854 151.796 84.6507 150.935 83.8347C150.096 83.0414 149.484 82.1007 149.099 81.0127L153.247 79.4487C153.519 80.3101 154.051 81.0014 154.845 81.5227C155.661 82.0667 156.658 82.3387 157.837 82.3387C158.743 82.3387 159.537 82.1687 160.217 81.8287C160.919 81.4887 161.463 80.9901 161.849 80.3327C162.234 79.6981 162.427 78.9274 162.427 78.0207V73.8047L163.277 74.8247C162.642 75.9354 161.792 76.7741 160.727 77.3407C159.661 77.9074 158.449 78.1907 157.089 78.1907C155.366 78.1907 153.825 77.7941 152.465 77.0007C151.105 76.2074 150.039 75.1194 149.269 73.7367C148.498 72.3541 148.113 70.8014 148.113 69.0787C148.113 67.3334 148.498 65.7807 149.269 64.4207C150.039 63.0607 151.093 61.9954 152.431 61.2247C153.768 60.4314 155.287 60.0347 156.987 60.0347C158.369 60.0347 159.582 60.3294 160.625 60.9187C161.69 61.4854 162.574 62.3127 163.277 63.4007L162.665 64.5227V60.4427H166.881V78.0207C166.881 79.6301 166.484 81.0694 165.691 82.3387C164.92 83.6081 163.855 84.6054 162.495 85.3307C161.157 86.0561 159.605 86.4187 157.837 86.4187ZM157.633 74.0767C158.585 74.0767 159.412 73.8727 160.115 73.4647C160.84 73.0341 161.407 72.4447 161.815 71.6967C162.223 70.9487 162.427 70.0874 162.427 69.1127C162.427 68.1607 162.211 67.3107 161.781 66.5627C161.373 65.7921 160.806 65.1914 160.081 64.7607C159.378 64.3301 158.562 64.1147 157.633 64.1147C156.703 64.1147 155.865 64.3301 155.117 64.7607C154.369 65.1914 153.779 65.7921 153.349 66.5627C152.941 67.3107 152.737 68.1607 152.737 69.1127C152.737 70.0647 152.941 70.9147 153.349 71.6627C153.779 72.4107 154.357 73.0001 155.083 73.4307C155.831 73.8614 156.681 74.0767 157.633 74.0767ZM179.472 79.3467C177.568 79.3467 175.902 78.9161 174.474 78.0547C173.046 77.1934 171.936 76.0261 171.142 74.5527C170.349 73.0794 169.952 71.4474 169.952 69.6567C169.952 67.7981 170.349 66.1547 171.142 64.7267C171.958 63.2761 173.058 62.1314 174.44 61.2927C175.846 60.4541 177.41 60.0347 179.132 60.0347C180.583 60.0347 181.852 60.2727 182.94 60.7487C184.051 61.2247 184.992 61.8821 185.762 62.7207C186.533 63.5594 187.122 64.5227 187.53 65.6107C187.938 66.6761 188.142 67.8321 188.142 69.0787C188.142 69.3961 188.12 69.7247 188.074 70.0647C188.052 70.4047 187.995 70.6994 187.904 70.9487H173.624V67.5487H185.388L183.28 69.1467C183.484 68.1041 183.428 67.1747 183.11 66.3587C182.816 65.5427 182.317 64.8967 181.614 64.4207C180.934 63.9447 180.107 63.7067 179.132 63.7067C178.203 63.7067 177.376 63.9447 176.65 64.4207C175.925 64.8741 175.37 65.5541 174.984 66.4607C174.622 67.3447 174.486 68.4214 174.576 69.6907C174.486 70.8241 174.633 71.8327 175.018 72.7167C175.426 73.5781 176.016 74.2467 176.786 74.7227C177.58 75.1987 178.486 75.4367 179.506 75.4367C180.526 75.4367 181.388 75.2214 182.09 74.7907C182.816 74.3601 183.382 73.7821 183.79 73.0567L187.394 74.8247C187.032 75.7087 186.465 76.4907 185.694 77.1707C184.924 77.8507 184.006 78.3834 182.94 78.7687C181.898 79.1541 180.742 79.3467 179.472 79.3467ZM191.179 78.9387V60.4427H195.361V64.0807L195.021 63.4347C195.451 62.3241 196.154 61.4854 197.129 60.9187C198.126 60.3294 199.282 60.0347 200.597 60.0347C201.957 60.0347 203.158 60.3294 204.201 60.9187C205.266 61.5081 206.093 62.3354 206.683 63.4007C207.272 64.4434 207.567 65.6561 207.567 67.0387V78.9387H203.113V68.0927C203.113 67.2767 202.954 66.5741 202.637 65.9847C202.319 65.3954 201.877 64.9421 201.311 64.6247C200.767 64.2847 200.121 64.1147 199.373 64.1147C198.647 64.1147 198.001 64.2847 197.435 64.6247C196.868 64.9421 196.426 65.3954 196.109 65.9847C195.791 66.5741 195.633 67.2767 195.633 68.0927V78.9387H191.179ZM219.425 79.1427C217.34 79.1427 215.719 78.5761 214.563 77.4427C213.43 76.2867 212.863 74.6661 212.863 72.5807V64.4207H209.667V60.4427H210.007C210.914 60.4427 211.616 60.2047 212.115 59.7287C212.614 59.2527 212.863 58.5614 212.863 57.6547V56.2267H217.317V60.4427H221.567V64.4207H217.317V72.3427C217.317 72.9547 217.419 73.4761 217.623 73.9067C217.85 74.3374 218.19 74.6661 218.643 74.8927C219.119 75.1194 219.72 75.2327 220.445 75.2327C220.604 75.2327 220.785 75.2214 220.989 75.1987C221.216 75.1761 221.431 75.1534 221.635 75.1307V78.9387C221.318 78.9841 220.955 79.0294 220.547 79.0747C220.139 79.1201 219.765 79.1427 219.425 79.1427ZM224.698 78.9387V60.4427H228.88V64.0807L228.54 63.4347C228.971 62.3241 229.673 61.4854 230.648 60.9187C231.645 60.3294 232.801 60.0347 234.116 60.0347C235.476 60.0347 236.677 60.3294 237.72 60.9187C238.785 61.5081 239.613 62.3354 240.202 63.4007C240.791 64.4434 241.086 65.6561 241.086 67.0387V78.9387H236.632V68.0927C236.632 67.2767 236.473 66.5741 236.156 65.9847C235.839 65.3954 235.397 64.9421 234.83 64.6247C234.286 64.2847 233.64 64.1147 232.892 64.1147C232.167 64.1147 231.521 64.2847 230.954 64.6247C230.387 64.9421 229.945 65.3954 229.628 65.9847C229.311 66.5741 229.152 67.2767 229.152 68.0927V78.9387H224.698ZM253.284 79.3467C251.38 79.3467 249.714 78.9161 248.286 78.0547C246.858 77.1934 245.748 76.0261 244.954 74.5527C244.161 73.0794 243.764 71.4474 243.764 69.6567C243.764 67.7981 244.161 66.1547 244.954 64.7267C245.77 63.2761 246.87 62.1314 248.252 61.2927C249.658 60.4541 251.222 60.0347 252.944 60.0347C254.395 60.0347 255.664 60.2727 256.752 60.7487C257.863 61.2247 258.804 61.8821 259.574 62.7207C260.345 63.5594 260.934 64.5227 261.342 65.6107C261.75 66.6761 261.954 67.8321 261.954 69.0787C261.954 69.3961 261.932 69.7247 261.886 70.0647C261.864 70.4047 261.807 70.6994 261.716 70.9487H247.436V67.5487H259.2L257.092 69.1467C257.296 68.1041 257.24 67.1747 256.922 66.3587C256.628 65.5427 256.129 64.8967 255.426 64.4207C254.746 63.9447 253.919 63.7067 252.944 63.7067C252.015 63.7067 251.188 63.9447 250.462 64.4207C249.737 64.8741 249.182 65.5541 248.796 66.4607C248.434 67.3447 248.298 68.4214 248.388 69.6907C248.298 70.8241 248.445 71.8327 248.83 72.7167C249.238 73.5781 249.828 74.2467 250.598 74.7227C251.392 75.1987 252.298 75.4367 253.318 75.4367C254.338 75.4367 255.2 75.2214 255.902 74.7907C256.628 74.3601 257.194 73.7821 257.602 73.0567L261.206 74.8247C260.844 75.7087 260.277 76.4907 259.506 77.1707C258.736 77.8507 257.818 78.3834 256.752 78.7687C255.71 79.1541 254.554 79.3467 253.284 79.3467ZM277.29 79.3467C275.862 79.3467 274.615 79.0294 273.55 78.3947C272.507 77.7601 271.702 76.8761 271.136 75.7427C270.592 74.6094 270.32 73.2834 270.32 71.7647V60.4427H274.774V71.3907C274.774 72.1614 274.921 72.8414 275.216 73.4307C275.533 73.9974 275.975 74.4507 276.542 74.7907C277.131 75.1081 277.788 75.2667 278.514 75.2667C279.239 75.2667 279.885 75.1081 280.452 74.7907C281.018 74.4507 281.46 73.9861 281.778 73.3967C282.095 72.8074 282.254 72.1047 282.254 71.2887V60.4427H286.708V78.9387H282.492V75.3007L282.866 75.9467C282.435 77.0801 281.721 77.9301 280.724 78.4967C279.749 79.0634 278.604 79.3467 277.29 79.3467ZM290.508 78.9387V60.4427H294.69V64.5567L294.35 63.9447C294.781 62.5621 295.449 61.5987 296.356 61.0547C297.285 60.5107 298.396 60.2387 299.688 60.2387H300.776V64.1827H299.178C297.909 64.1827 296.889 64.5794 296.118 65.3727C295.347 66.1434 294.962 67.2314 294.962 68.6367V78.9387H290.508ZM301.287 78.9387V75.3347L312.031 62.8907L312.711 64.4207H301.763V60.4427H316.655V64.0807L306.115 76.5247L305.435 74.9947H316.723V78.9387H301.287ZM324.524 79.3467C323.232 79.3467 322.11 79.1314 321.158 78.7007C320.206 78.2701 319.469 77.6581 318.948 76.8647C318.426 76.0487 318.166 75.1081 318.166 74.0427C318.166 73.0227 318.392 72.1161 318.846 71.3227C319.299 70.5067 320.002 69.8267 320.954 69.2827C321.906 68.7387 323.107 68.3534 324.558 68.1267L330.61 67.1407V70.5407L325.408 71.4247C324.524 71.5834 323.866 71.8667 323.436 72.2747C323.005 72.6827 322.79 73.2154 322.79 73.8727C322.79 74.5074 323.028 75.0174 323.504 75.4027C324.002 75.7654 324.614 75.9467 325.34 75.9467C326.269 75.9467 327.085 75.7541 327.788 75.3687C328.513 74.9607 329.068 74.4054 329.454 73.7027C329.862 73.0001 330.066 72.2294 330.066 71.3907V66.6307C330.066 65.8374 329.748 65.1801 329.114 64.6587C328.502 64.1147 327.686 63.8427 326.666 63.8427C325.714 63.8427 324.864 64.1034 324.116 64.6247C323.39 65.1234 322.858 65.7921 322.518 66.6307L318.88 64.8627C319.242 63.8881 319.809 63.0494 320.58 62.3467C321.373 61.6214 322.302 61.0547 323.368 60.6467C324.433 60.2387 325.589 60.0347 326.836 60.0347C328.354 60.0347 329.692 60.3181 330.848 60.8847C332.004 61.4287 332.899 62.1994 333.534 63.1967C334.191 64.1714 334.52 65.3161 334.52 66.6307V78.9387H330.304V75.7767L331.256 75.7087C330.78 76.5021 330.213 77.1707 329.556 77.7147C328.898 78.2361 328.15 78.6441 327.312 78.9387C326.473 79.2107 325.544 79.3467 324.524 79.3467ZM332.786 86.9967C331.358 86.9967 330.213 86.6114 329.352 85.8407C328.49 85.0701 328.06 84.1067 328.06 82.9507C328.06 82.0894 328.241 81.2847 328.604 80.5367C328.989 79.8114 329.556 79.1994 330.304 78.7007C331.074 78.1794 332.038 77.8167 333.194 77.6127H334.18V78.9387C333.726 79.0294 333.307 79.2334 332.922 79.5507C332.559 79.8681 332.264 80.2534 332.038 80.7067C331.811 81.1827 331.698 81.7154 331.698 82.3047C331.698 82.8487 331.879 83.2681 332.242 83.5627C332.627 83.8801 333.046 84.0387 333.5 84.0387C333.885 84.0387 334.225 83.9821 334.52 83.8687C334.814 83.7554 335.12 83.5741 335.438 83.3247L336.39 85.8747C335.914 86.2147 335.381 86.4867 334.792 86.6907C334.225 86.8947 333.556 86.9967 332.786 86.9967ZM346.898 79.3467C345.108 79.3467 343.51 78.9274 342.104 78.0887C340.699 77.2274 339.588 76.0601 338.772 74.5867C337.956 73.1134 337.548 71.4814 337.548 69.6907C337.548 67.8774 337.956 66.2454 338.772 64.7947C339.588 63.3441 340.699 62.1881 342.104 61.3267C343.532 60.4654 345.119 60.0347 346.864 60.0347C348.27 60.0347 349.516 60.3181 350.604 60.8847C351.715 61.4287 352.588 62.1994 353.222 63.1967L352.542 64.1147V53.2007H356.996V78.9387H352.78V75.3687L353.256 76.2527C352.622 77.2501 351.738 78.0207 350.604 78.5647C349.471 79.0861 348.236 79.3467 346.898 79.3467ZM347.374 75.2667C348.394 75.2667 349.29 75.0287 350.06 74.5527C350.831 74.0767 351.432 73.4194 351.862 72.5807C352.316 71.7421 352.542 70.7787 352.542 69.6907C352.542 68.6254 352.316 67.6734 351.862 66.8347C351.432 65.9734 350.831 65.3047 350.06 64.8287C349.29 64.3527 348.394 64.1147 347.374 64.1147C346.377 64.1147 345.482 64.3641 344.688 64.8627C343.895 65.3387 343.272 65.9961 342.818 66.8347C342.388 67.6507 342.172 68.6027 342.172 69.6907C342.172 70.7787 342.388 71.7421 342.818 72.5807C343.272 73.4194 343.895 74.0767 344.688 74.5527C345.482 75.0287 346.377 75.2667 347.374 75.2667ZM359.202 78.9387V75.3347L369.946 62.8907L370.626 64.4207H359.678V60.4427H374.57V64.0807L364.03 76.5247L363.35 74.9947H374.638V78.9387H359.202ZM385.601 79.3467C383.697 79.3467 382.031 78.9161 380.603 78.0547C379.175 77.1934 378.065 76.0261 377.271 74.5527C376.478 73.0794 376.081 71.4474 376.081 69.6567C376.081 67.7981 376.478 66.1547 377.271 64.7267C378.087 63.2761 379.187 62.1314 380.569 61.2927C381.975 60.4541 383.539 60.0347 385.261 60.0347C386.712 60.0347 387.981 60.2727 389.069 60.7487C390.18 61.2247 391.121 61.8821 391.891 62.7207C392.662 63.5594 393.251 64.5227 393.659 65.6107C394.067 66.6761 394.271 67.8321 394.271 69.0787C394.271 69.3961 394.249 69.7247 394.203 70.0647C394.181 70.4047 394.124 70.6994 394.033 70.9487H379.753V67.5487H391.517L389.409 69.1467C389.613 68.1041 389.557 67.1747 389.239 66.3587C388.945 65.5427 388.446 64.8967 387.743 64.4207C387.063 63.9447 386.236 63.7067 385.261 63.7067C384.332 63.7067 383.505 63.9447 382.779 64.4207C382.054 64.8741 381.499 65.5541 381.113 66.4607C380.751 67.3447 380.615 68.4214 380.705 69.6907C380.615 70.8241 380.762 71.8327 381.147 72.7167C381.555 73.5781 382.145 74.2467 382.915 74.7227C383.709 75.1987 384.615 75.4367 385.635 75.4367C386.655 75.4367 387.517 75.2214 388.219 74.7907C388.945 74.3601 389.511 73.7821 389.919 73.0567L393.523 74.8247C393.161 75.7087 392.594 76.4907 391.823 77.1707C391.053 77.8507 390.135 78.3834 389.069 78.7687C388.027 79.1541 386.871 79.3467 385.601 79.3467ZM397.308 78.9387V60.4427H401.49V64.0807L401.15 63.4347C401.58 62.3241 402.283 61.4854 403.258 60.9187C404.255 60.3294 405.411 60.0347 406.726 60.0347C408.086 60.0347 409.287 60.3294 410.33 60.9187C411.395 61.5081 412.222 62.3354 412.812 63.4007C413.401 64.4434 413.696 65.6561 413.696 67.0387V78.9387H409.242V68.0927C409.242 67.2767 409.083 66.5741 408.766 65.9847C408.448 65.3954 408.006 64.9421 407.44 64.6247C406.896 64.2847 406.25 64.1147 405.502 64.1147C404.776 64.1147 404.13 64.2847 403.564 64.6247C402.997 64.9421 402.555 65.3954 402.238 65.9847C401.92 66.5741 401.762 67.2767 401.762 68.0927V78.9387H397.308ZM417.122 78.9387V60.4427H421.576V78.9387H417.122ZM417.122 58.3687V53.6087H421.576V58.3687H417.122ZM430.958 79.3467C429.666 79.3467 428.544 79.1314 427.592 78.7007C426.64 78.2701 425.904 77.6581 425.382 76.8647C424.861 76.0487 424.6 75.1081 424.6 74.0427C424.6 73.0227 424.827 72.1161 425.28 71.3227C425.734 70.5067 426.436 69.8267 427.388 69.2827C428.34 68.7387 429.542 68.3534 430.992 68.1267L437.044 67.1407V70.5407L431.842 71.4247C430.958 71.5834 430.301 71.8667 429.87 72.2747C429.44 72.6827 429.224 73.2154 429.224 73.8727C429.224 74.5074 429.462 75.0174 429.938 75.4027C430.437 75.7654 431.049 75.9467 431.774 75.9467C432.704 75.9467 433.52 75.7541 434.222 75.3687C434.948 74.9607 435.503 74.4054 435.888 73.7027C436.296 73.0001 436.5 72.2294 436.5 71.3907V66.6307C436.5 65.8374 436.183 65.1801 435.548 64.6587C434.936 64.1147 434.12 63.8427 433.1 63.8427C432.148 63.8427 431.298 64.1034 430.55 64.6247C429.825 65.1234 429.292 65.7921 428.952 66.6307L425.314 64.8627C425.677 63.8881 426.244 63.0494 427.014 62.3467C427.808 61.6214 428.737 61.0547 429.802 60.6467C430.868 60.2387 432.024 60.0347 433.27 60.0347C434.789 60.0347 436.126 60.3181 437.282 60.8847C438.438 61.4287 439.334 62.1994 439.968 63.1967C440.626 64.1714 440.954 65.3161 440.954 66.6307V78.9387H436.738V75.7767L437.69 75.7087C437.214 76.5021 436.648 77.1707 435.99 77.7147C435.333 78.2361 434.585 78.6441 433.746 78.9387C432.908 79.2107 431.978 79.3467 430.958 79.3467Z" fill="#D6DDE6"/>
<path opacity="0.5" d="M67.3462 119.323C67.3462 114.905 70.9279 111.323 75.3462 111.323H456.437C460.855 111.323 464.437 114.905 464.437 119.323V145.539C464.437 149.957 460.855 153.539 456.437 153.539H75.3462C70.9279 153.539 67.3462 149.957 67.3462 145.539V119.323Z" fill="#D6DDE6" fill-opacity="0.2"/>
</g>
<defs>
<filter id="filter0_dddd_501_12" x="0.065218" y="0.0845661" width="558.038" height="342.106" filterUnits="userSpaceOnUse" color-interpolation-filters="sRGB">
<feFlood flood-opacity="0" result="BackgroundImageFix"/>
<feColorMatrix in="SourceAlpha" type="matrix" values="0 0 0 0 0 0 0 0 0 0 0 0 0 0 0 0 0 0 127 0" result="hardAlpha"/>
<feOffset dx="1.31924" dy="6.59619"/>
<feGaussianBlur stdDeviation="7.25581"/>
<feColorMatrix type="matrix" values="0 0 0 0 0 0 0 0 0 0 0 0 0 0 0 0 0 0 0.08 0"/>
<feBlend mode="normal" in2="BackgroundImageFix" result="effect1_dropShadow_501_12"/>
<feColorMatrix in="SourceAlpha" type="matrix" values="0 0 0 0 0 0 0 0 0 0 0 0 0 0 0 0 0 0 127 0" result="hardAlpha"/>
<feOffset dx="2.63848" dy="26.3848"/>
<feGaussianBlur stdDeviation="13.852"/>
<feColorMatrix type="matrix" values="0 0 0 0 0 0 0 0 0 0 0 0 0 0 0 0 0 0 0.06 0"/>
<feBlend mode="normal" in2="effect1_dropShadow_501_12" result="effect2_dropShadow_501_12"/>
<feColorMatrix in="SourceAlpha" type="matrix" values="0 0 0 0 0 0 0 0 0 0 0 0 0 0 0 0 0 0 127 0" result="hardAlpha"/>
<feOffset dx="6.59619" dy="60.685"/>
<feGaussianBlur stdDeviation="18.4693"/>
<feColorMatrix type="matrix" values="0 0 0 0 0 0 0 0 0 0 0 0 0 0 0 0 0 0 0.04 0"/>
<feBlend mode="normal" in2="effect2_dropShadow_501_12" result="effect3_dropShadow_501_12"/>
<feColorMatrix in="SourceAlpha" type="matrix" values="0 0 0 0 0 0 0 0 0 0 0 0 0 0 0 0 0 0 127 0" result="hardAlpha"/>
<feOffset dx="13.1924" dy="108.178"/>
<feGaussianBlur stdDeviation="21.7674"/>
<feColorMatrix type="matrix" values="0 0 0 0 0 0 0 0 0 0 0 0 0 0 0 0 0 0 0.01 0"/>
<feBlend mode="normal" in2="effect3_dropShadow_501_12" result="effect4_dropShadow_501_12"/>
<feBlend mode="normal" in="SourceGraphic" in2="effect4_dropShadow_501_12" result="shape"/>
</filter>
<linearGradient id="paint0_linear_501_12" x1="71.0084" y1="-7.20648" x2="149.03" y2="272.949" gradientUnits="userSpaceOnUse">
<stop stop-color="#D6D7D8" stop-opacity="0"/>
<stop offset="1" stop-color="#A3D260" stop-opacity="0.06"/>
</linearGradient>
</defs>
</svg>
