<svg width="571" height="384" viewBox="0 0 571 384" fill="none" xmlns="http://www.w3.org/2000/svg">
<g filter="url(#filter0_dddd_501_22)">
<mask id="path-1-inside-1_501_22" fill="white">
<path d="M117.392 49C117.392 40.1634 124.556 33 133.392 33H397.392C406.229 33 413.392 40.1634 413.392 49V421C413.392 429.837 406.229 437 397.392 437H133.392C124.556 437 117.392 429.837 117.392 421V49Z"/>
</mask>
<path d="M117.392 49C117.392 40.1634 124.556 33 133.392 33H397.392C406.229 33 413.392 40.1634 413.392 49V421C413.392 429.837 406.229 437 397.392 437H133.392C124.556 437 117.392 429.837 117.392 421V49Z" fill="#1E1E1E"/>
<path d="M117.392 49C117.392 40.1634 124.556 33 133.392 33H397.392C406.229 33 413.392 40.1634 413.392 49V421C413.392 429.837 406.229 437 397.392 437H133.392C124.556 437 117.392 429.837 117.392 421V49Z" fill="url(#paint0_linear_501_22)" fill-opacity="0.16" style="mix-blend-mode:luminosity"/>
<path d="M133.392 33V34.5H397.392V33V31.5H133.392V33ZM413.392 49H411.892V421H413.392H414.892V49H413.392ZM397.392 437V435.5H133.392V437V438.5H397.392V437ZM117.392 421H118.892V49H117.392H115.892V421H117.392ZM133.392 437V435.5C125.384 435.5 118.892 429.008 118.892 421H117.392H115.892C115.892 430.665 123.727 438.5 133.392 438.5V437ZM413.392 421H411.892C411.892 429.008 405.4 435.5 397.392 435.5V437V438.5C407.057 438.5 414.892 430.665 414.892 421H413.392ZM397.392 33V34.5C405.4 34.5 411.892 40.9919 411.892 49H413.392H414.892C414.892 39.335 407.057 31.5 397.392 31.5V33ZM133.392 33V31.5C123.727 31.5 115.892 39.335 115.892 49H117.392H118.892C118.892 40.9919 125.384 34.5 133.392 34.5V33Z" fill="#D6DDE6" fill-opacity="0.2" mask="url(#path-1-inside-1_501_22)"/>
<path d="M145.392 69C145.392 64.5817 148.974 61 153.392 61H279.392C283.81 61 287.392 64.5817 287.392 69V85C287.392 89.4183 283.81 93 279.392 93H153.392C148.974 93 145.392 89.4183 145.392 85V69Z" fill="#D6DDE6" fill-opacity="0.2"/>
<path opacity="0.5" d="M145.392 121C145.392 116.582 148.974 113 153.392 113H377.392C381.81 113 385.392 116.582 385.392 121V401C385.392 405.418 381.81 409 377.392 409H153.392C148.974 409 145.392 405.418 145.392 401V121Z" fill="#D6DDE6" fill-opacity="0.2"/>
</g>
<g filter="url(#filter1_dddd_501_22)">
<mask id="path-5-inside-2_501_22" fill="white">
<path d="M296.393 174C296.393 165.163 303.556 158 312.393 158H511.393C520.229 158 527.393 165.163 527.393 174V214C527.393 222.837 520.229 230 511.393 230H312.393C303.556 230 296.393 222.837 296.393 214V174Z"/>
</mask>
<path d="M296.393 174C296.393 165.163 303.556 158 312.393 158H511.393C520.229 158 527.393 165.163 527.393 174V214C527.393 222.837 520.229 230 511.393 230H312.393C303.556 230 296.393 222.837 296.393 214V174Z" fill="#1E1E1E"/>
<path d="M296.393 174C296.393 165.163 303.556 158 312.393 158H511.393C520.229 158 527.393 165.163 527.393 174V214C527.393 222.837 520.229 230 511.393 230H312.393C303.556 230 296.393 222.837 296.393 214V174Z" fill="white" fill-opacity="0.04"/>
<path d="M296.393 174C296.393 165.163 303.556 158 312.393 158H511.393C520.229 158 527.393 165.163 527.393 174V214C527.393 222.837 520.229 230 511.393 230H312.393C303.556 230 296.393 222.837 296.393 214V174Z" fill="url(#paint1_linear_501_22)" fill-opacity="0.32" style="mix-blend-mode:luminosity"/>
<path d="M312.393 158V159.5H511.393V158V156.5H312.393V158ZM527.393 174H525.893V214H527.393H528.893V174H527.393ZM511.393 230V228.5H312.393V230V231.5H511.393V230ZM296.393 214H297.893V174H296.393H294.893V214H296.393ZM312.393 230V228.5C304.384 228.5 297.893 222.008 297.893 214H296.393H294.893C294.893 223.665 302.728 231.5 312.393 231.5V230ZM527.393 214H525.893C525.893 222.008 519.401 228.5 511.393 228.5V230V231.5C521.058 231.5 528.893 223.665 528.893 214H527.393ZM511.393 158V159.5C519.401 159.5 525.893 165.992 525.893 174H527.393H528.893C528.893 164.335 521.058 156.5 511.393 156.5V158ZM312.393 158V156.5C302.728 156.5 294.893 164.335 294.893 174H296.393H297.893C297.893 165.992 304.384 159.5 312.393 159.5V158Z" fill="#D6DDE6" fill-opacity="0.2" mask="url(#path-5-inside-2_501_22)"/>
<path d="M366.313 202V199.94L370.353 195.72C371.153 194.88 371.766 194.213 372.193 193.72C372.633 193.213 372.939 192.78 373.113 192.42C373.286 192.06 373.373 191.693 373.373 191.32C373.373 190.693 373.173 190.2 372.773 189.84C372.386 189.48 371.886 189.3 371.273 189.3C370.633 189.3 370.079 189.487 369.613 189.86C369.146 190.22 368.806 190.753 368.593 191.46L366.213 190.72C366.373 189.933 366.699 189.253 367.193 188.68C367.686 188.093 368.286 187.647 368.993 187.34C369.713 187.02 370.473 186.86 371.273 186.86C372.233 186.86 373.073 187.033 373.793 187.38C374.526 187.727 375.093 188.213 375.493 188.84C375.906 189.467 376.113 190.2 376.113 191.04C376.113 191.573 376.013 192.1 375.813 192.62C375.613 193.14 375.313 193.673 374.913 194.22C374.513 194.753 373.993 195.353 373.353 196.02L369.853 199.7H376.313V202H366.313ZM384.406 202.24C383.22 202.24 382.18 201.92 381.286 201.28C380.393 200.64 379.693 199.74 379.186 198.58C378.693 197.42 378.446 196.073 378.446 194.54C378.446 192.993 378.693 191.647 379.186 190.5C379.68 189.353 380.373 188.46 381.266 187.82C382.16 187.18 383.2 186.86 384.386 186.86C385.6 186.86 386.646 187.18 387.526 187.82C388.42 188.46 389.12 189.36 389.626 190.52C390.133 191.667 390.386 193.007 390.386 194.54C390.386 196.073 390.133 197.42 389.626 198.58C389.133 199.727 388.44 200.627 387.546 201.28C386.653 201.92 385.606 202.24 384.406 202.24ZM384.426 199.76C385.106 199.76 385.686 199.553 386.166 199.14C386.646 198.713 387.013 198.113 387.266 197.34C387.533 196.553 387.666 195.62 387.666 194.54C387.666 193.46 387.533 192.533 387.266 191.76C387.013 190.973 386.64 190.373 386.146 189.96C385.666 189.547 385.08 189.34 384.386 189.34C383.72 189.34 383.146 189.547 382.666 189.96C382.186 190.373 381.813 190.973 381.546 191.76C381.293 192.533 381.166 193.46 381.166 194.54C381.166 195.607 381.293 196.533 381.546 197.32C381.813 198.093 382.186 198.693 382.666 199.12C383.16 199.547 383.746 199.76 384.426 199.76ZM398.566 202.24C397.38 202.24 396.34 201.92 395.446 201.28C394.553 200.64 393.853 199.74 393.346 198.58C392.853 197.42 392.606 196.073 392.606 194.54C392.606 192.993 392.853 191.647 393.346 190.5C393.84 189.353 394.533 188.46 395.426 187.82C396.32 187.18 397.36 186.86 398.546 186.86C399.76 186.86 400.806 187.18 401.686 187.82C402.58 188.46 403.28 189.36 403.786 190.52C404.293 191.667 404.546 193.007 404.546 194.54C404.546 196.073 404.293 197.42 403.786 198.58C403.293 199.727 402.6 200.627 401.706 201.28C400.813 201.92 399.766 202.24 398.566 202.24ZM398.586 199.76C399.266 199.76 399.846 199.553 400.326 199.14C400.806 198.713 401.173 198.113 401.426 197.34C401.693 196.553 401.826 195.62 401.826 194.54C401.826 193.46 401.693 192.533 401.426 191.76C401.173 190.973 400.8 190.373 400.306 189.96C399.826 189.547 399.24 189.34 398.546 189.34C397.88 189.34 397.306 189.547 396.826 189.96C396.346 190.373 395.973 190.973 395.706 191.76C395.453 192.533 395.326 193.46 395.326 194.54C395.326 195.607 395.453 196.533 395.706 197.32C395.973 198.093 396.346 198.693 396.826 199.12C397.32 199.547 397.906 199.76 398.586 199.76ZM418.801 206V199.9L419.221 200.42C418.848 201.007 418.328 201.46 417.661 201.78C416.995 202.087 416.268 202.24 415.481 202.24C414.428 202.24 413.488 201.993 412.661 201.5C411.835 200.993 411.181 200.307 410.701 199.44C410.221 198.573 409.981 197.613 409.981 196.56C409.981 195.493 410.221 194.533 410.701 193.68C411.181 192.827 411.835 192.147 412.661 191.64C413.501 191.133 414.435 190.88 415.461 190.88C416.288 190.88 417.021 191.047 417.661 191.38C418.315 191.7 418.828 192.153 419.201 192.74L418.941 193.28V191.12H421.421V206H418.801ZM415.761 199.84C416.361 199.84 416.888 199.7 417.341 199.42C417.795 199.14 418.148 198.753 418.401 198.26C418.668 197.767 418.801 197.2 418.801 196.56C418.801 195.933 418.668 195.373 418.401 194.88C418.148 194.373 417.795 193.98 417.341 193.7C416.888 193.42 416.361 193.28 415.761 193.28C415.175 193.28 414.648 193.427 414.181 193.72C413.715 194 413.348 194.387 413.081 194.88C412.828 195.36 412.701 195.92 412.701 196.56C412.701 197.2 412.828 197.767 413.081 198.26C413.348 198.753 413.715 199.14 414.181 199.42C414.648 199.7 415.175 199.84 415.761 199.84ZM427.739 202.24C426.899 202.24 426.165 202.053 425.539 201.68C424.925 201.307 424.452 200.787 424.119 200.12C423.799 199.453 423.639 198.673 423.639 197.78V191.12H426.259V197.56C426.259 198.013 426.345 198.413 426.519 198.76C426.705 199.093 426.965 199.36 427.299 199.56C427.645 199.747 428.032 199.84 428.459 199.84C428.885 199.84 429.265 199.747 429.599 199.56C429.932 199.36 430.192 199.087 430.379 198.74C430.565 198.393 430.659 197.98 430.659 197.5V191.12H433.279V202H430.799V199.86L431.019 200.24C430.765 200.907 430.345 201.407 429.759 201.74C429.185 202.073 428.512 202.24 427.739 202.24ZM435.714 202V191.12H438.334V202H435.714ZM435.714 189.9V187.1H438.334V189.9H435.714ZM439.813 202V199.88L446.133 192.56L446.533 193.46H440.093V191.12H448.853V193.26L442.653 200.58L442.253 199.68H448.893V202H439.813ZM455.702 202.24C454.635 202.24 453.662 201.993 452.782 201.5C451.915 201.007 451.222 200.333 450.702 199.48C450.195 198.627 449.942 197.653 449.942 196.56C449.942 195.467 450.195 194.493 450.702 193.64C451.222 192.787 451.915 192.113 452.782 191.62C453.649 191.127 454.622 190.88 455.702 190.88C456.769 190.88 457.735 191.127 458.602 191.62C459.469 192.113 460.155 192.787 460.662 193.64C461.182 194.48 461.442 195.453 461.442 196.56C461.442 197.653 461.182 198.627 460.662 199.48C460.142 200.333 459.449 201.007 458.582 201.5C457.715 201.993 456.755 202.24 455.702 202.24ZM455.702 199.84C456.289 199.84 456.802 199.7 457.242 199.42C457.695 199.14 458.049 198.753 458.302 198.26C458.569 197.753 458.702 197.187 458.702 196.56C458.702 195.92 458.569 195.36 458.302 194.88C458.049 194.387 457.695 194 457.242 193.72C456.802 193.427 456.289 193.28 455.702 193.28C455.102 193.28 454.575 193.427 454.122 193.72C453.669 194 453.309 194.387 453.042 194.88C452.789 195.36 452.662 195.92 452.662 196.56C452.662 197.187 452.789 197.753 453.042 198.26C453.309 198.753 453.669 199.14 454.122 199.42C454.575 199.7 455.102 199.84 455.702 199.84ZM454.402 189.2L455.702 185.74H459.102L456.982 189.2H454.402ZM465.974 202L462.234 191.12H464.994L467.734 199.38L466.774 199.36L469.694 191.12H472.014L474.914 199.36L473.954 199.38L476.694 191.12H479.454L475.714 202H473.374L470.414 193.38H471.294L468.294 202H465.974ZM482.23 197.48L482.05 187.1H484.71L484.53 197.48H482.23ZM482.05 202V199.2H484.71V202H482.05Z" fill="#D6DDE6"/>
<path d="M332.393 207.333C339.757 207.333 345.726 201.364 345.726 194C345.726 186.636 339.757 180.667 332.393 180.667C325.029 180.667 319.06 186.636 319.06 194C319.06 201.364 325.029 207.333 332.393 207.333Z" stroke="#C1F17E" stroke-width="1.5" stroke-linecap="round" stroke-linejoin="round" stroke-dasharray="4 4"/>
</g>
<defs>
<filter id="filter0_dddd_501_22" x="94.3921" y="27" width="362" height="525" filterUnits="userSpaceOnUse" color-interpolation-filters="sRGB">
<feFlood flood-opacity="0" result="BackgroundImageFix"/>
<feColorMatrix in="SourceAlpha" type="matrix" values="0 0 0 0 0 0 0 0 0 0 0 0 0 0 0 0 0 0 127 0" result="hardAlpha"/>
<feOffset dx="1" dy="5"/>
<feGaussianBlur stdDeviation="5.5"/>
<feColorMatrix type="matrix" values="0 0 0 0 0 0 0 0 0 0 0 0 0 0 0 0 0 0 0.08 0"/>
<feBlend mode="normal" in2="BackgroundImageFix" result="effect1_dropShadow_501_22"/>
<feColorMatrix in="SourceAlpha" type="matrix" values="0 0 0 0 0 0 0 0 0 0 0 0 0 0 0 0 0 0 127 0" result="hardAlpha"/>
<feOffset dx="2" dy="20"/>
<feGaussianBlur stdDeviation="10.5"/>
<feColorMatrix type="matrix" values="0 0 0 0 0 0 0 0 0 0 0 0 0 0 0 0 0 0 0.06 0"/>
<feBlend mode="normal" in2="effect1_dropShadow_501_22" result="effect2_dropShadow_501_22"/>
<feColorMatrix in="SourceAlpha" type="matrix" values="0 0 0 0 0 0 0 0 0 0 0 0 0 0 0 0 0 0 127 0" result="hardAlpha"/>
<feOffset dx="5" dy="46"/>
<feGaussianBlur stdDeviation="14"/>
<feColorMatrix type="matrix" values="0 0 0 0 0 0 0 0 0 0 0 0 0 0 0 0 0 0 0.04 0"/>
<feBlend mode="normal" in2="effect2_dropShadow_501_22" result="effect3_dropShadow_501_22"/>
<feColorMatrix in="SourceAlpha" type="matrix" values="0 0 0 0 0 0 0 0 0 0 0 0 0 0 0 0 0 0 127 0" result="hardAlpha"/>
<feOffset dx="10" dy="82"/>
<feGaussianBlur stdDeviation="16.5"/>
<feColorMatrix type="matrix" values="0 0 0 0 0 0 0 0 0 0 0 0 0 0 0 0 0 0 0.01 0"/>
<feBlend mode="normal" in2="effect3_dropShadow_501_22" result="effect4_dropShadow_501_22"/>
<feBlend mode="normal" in="SourceGraphic" in2="effect4_dropShadow_501_22" result="shape"/>
</filter>
<filter id="filter1_dddd_501_22" x="273.393" y="152" width="297" height="193" filterUnits="userSpaceOnUse" color-interpolation-filters="sRGB">
<feFlood flood-opacity="0" result="BackgroundImageFix"/>
<feColorMatrix in="SourceAlpha" type="matrix" values="0 0 0 0 0 0 0 0 0 0 0 0 0 0 0 0 0 0 127 0" result="hardAlpha"/>
<feOffset dx="1" dy="5"/>
<feGaussianBlur stdDeviation="5.5"/>
<feColorMatrix type="matrix" values="0 0 0 0 0 0 0 0 0 0 0 0 0 0 0 0 0 0 0.08 0"/>
<feBlend mode="normal" in2="BackgroundImageFix" result="effect1_dropShadow_501_22"/>
<feColorMatrix in="SourceAlpha" type="matrix" values="0 0 0 0 0 0 0 0 0 0 0 0 0 0 0 0 0 0 127 0" result="hardAlpha"/>
<feOffset dx="2" dy="20"/>
<feGaussianBlur stdDeviation="10.5"/>
<feColorMatrix type="matrix" values="0 0 0 0 0 0 0 0 0 0 0 0 0 0 0 0 0 0 0.06 0"/>
<feBlend mode="normal" in2="effect1_dropShadow_501_22" result="effect2_dropShadow_501_22"/>
<feColorMatrix in="SourceAlpha" type="matrix" values="0 0 0 0 0 0 0 0 0 0 0 0 0 0 0 0 0 0 127 0" result="hardAlpha"/>
<feOffset dx="5" dy="46"/>
<feGaussianBlur stdDeviation="14"/>
<feColorMatrix type="matrix" values="0 0 0 0 0 0 0 0 0 0 0 0 0 0 0 0 0 0 0.04 0"/>
<feBlend mode="normal" in2="effect2_dropShadow_501_22" result="effect3_dropShadow_501_22"/>
<feColorMatrix in="SourceAlpha" type="matrix" values="0 0 0 0 0 0 0 0 0 0 0 0 0 0 0 0 0 0 127 0" result="hardAlpha"/>
<feOffset dx="10" dy="82"/>
<feGaussianBlur stdDeviation="16.5"/>
<feColorMatrix type="matrix" values="0 0 0 0 0 0 0 0 0 0 0 0 0 0 0 0 0 0 0.01 0"/>
<feBlend mode="normal" in2="effect3_dropShadow_501_22" result="effect4_dropShadow_501_22"/>
<feBlend mode="normal" in="SourceGraphic" in2="effect4_dropShadow_501_22" result="shape"/>
</filter>
<linearGradient id="paint0_linear_501_22" x1="142.909" y1="-0.666667" x2="477.029" y2="339.909" gradientUnits="userSpaceOnUse">
<stop stop-opacity="0"/>
<stop offset="1" stop-opacity="0.5"/>
</linearGradient>
<linearGradient id="paint1_linear_501_22" x1="316.306" y1="152" x2="341.717" y2="265.421" gradientUnits="userSpaceOnUse">
<stop stop-color="#D6D7D8" stop-opacity="0"/>
<stop offset="1" stop-color="#A3D260" stop-opacity="0.06"/>
</linearGradient>
</defs>
</svg>
