<svg xmlns="http://www.w3.org/2000/svg" width="1160" height="916" fill="none"><g filter="url(#a)"><mask id="b" width="1026" height="722" x="67" y="15" fill="#000" maskUnits="userSpaceOnUse"><path fill="#fff" d="M67 15h1026v722H67z"/><path d="M68 38c0-12.15 9.85-22 22-22h980c12.15 0 22 9.85 22 22v676c0 12.15-9.85 22-22 22H90c-12.15 0-22-9.85-22-22V38Z"/></mask><path fill="#1E1E1E" d="M68 38c0-12.15 9.85-22 22-22h980c12.15 0 22 9.85 22 22v676c0 12.15-9.85 22-22 22H90c-12.15 0-22-9.85-22-22V38Z"/><path fill="#fff" fill-opacity=".16" d="M90 16v1h980v-2H90v1Zm1002 22h-1v676h2V38h-1Zm-22 698v-1H90v2h980v-1ZM68 714h1V38h-2v676h1Zm22 22v-1c-11.598 0-21-9.402-21-21h-2c0 12.703 10.297 23 23 23v-1Zm1002-22h-1c0 11.598-9.4 21-21 21v2c12.7 0 23-10.297 23-23h-1Zm-22-698v1c11.6 0 21 9.402 21 21h2c0-12.703-10.3-23-23-23v1ZM90 16v-1c-12.703 0-23 10.297-23 23h2c0-11.598 9.402-21 21-21v-1Z" mask="url(#b)"/><path fill="#fff" fill-opacity=".2" d="M108 144c0-12.15 9.85-22 22-22h685c12.15 0 22 9.85 22 22v227c0 12.15-9.85 22-22 22H130c-12.15 0-22-9.85-22-22V144ZM108 447c0-12.15 9.85-22 22-22h685c12.15 0 22 9.85 22 22v227c0 12.15-9.85 22-22 22H130c-12.15 0-22-9.85-22-22V447ZM869 144c0-12.15 9.85-22 22-22h139c12.15 0 22 9.85 22 22v530c0 12.15-9.85 22-22 22H891c-12.15 0-22-9.85-22-22V144Z" opacity=".3"/><path fill="#928DD3" fill-rule="evenodd" d="M117.685 54.895c1.488-1.488 4.313-2.058 8.331-.876.283.083.569.175.858.274a41.524 41.524 0 0 0-5.3 4.491 43.196 43.196 0 0 0-1.876 2 2.25 2.25 0 0 0 3.38 2.971 38.073 38.073 0 0 1 1.678-1.789c2.223-2.223 4.578-4.04 6.894-5.42 2.317 1.38 4.671 3.197 6.895 5.42 2.523 2.523 4.522 5.214 5.953 7.829.044.097.095.191.153.281.809 1.519 1.426 3.008 1.841 4.42 1.181 4.017.612 6.842-.876 8.33-1.488 1.488-4.313 2.058-8.331.876a19.88 19.88 0 0 1-.858-.274 41.524 41.524 0 0 0 5.3-4.491 43.225 43.225 0 0 0 1.798-1.911 2.25 2.25 0 0 0-3.371-2.981 38.743 38.743 0 0 1-1.609 1.71c-2.224 2.223-4.578 4.04-6.895 5.42-2.316-1.38-4.671-3.197-6.894-5.42-4.082-4.082-6.793-8.605-7.947-12.53-1.182-4.017-.612-6.842.876-8.33Zm9.6-5.193c1.431.42 2.895 1 4.365 1.725a27.374 27.374 0 0 1 4.366-1.725c4.683-1.378 9.583-1.187 12.782 2.011 2.189 2.189 2.969 5.213 2.804 8.344-.146 2.79-1.041 5.81-2.518 8.803a27.346 27.346 0 0 1 1.725 4.366c1.378 4.684 1.187 9.584-2.011 12.782-3.199 3.198-8.099 3.389-12.782 2.011-1.431-.42-2.895-1-4.366-1.725a27.327 27.327 0 0 1-4.365 1.725c-4.684 1.378-9.584 1.187-12.782-2.011-2.187-2.187-2.968-5.209-2.805-8.338.146-2.791 1.041-5.813 2.519-8.81a27.346 27.346 0 0 1-1.725-4.365c-1.378-4.684-1.187-9.584 2.011-12.782 3.198-3.198 8.098-3.389 12.782-2.011Zm14.442 9.082a41.524 41.524 0 0 0-5.3-4.49c.289-.1.575-.192.858-.275 4.018-1.181 6.843-.612 8.331.876 1.026 1.026 1.613 2.647 1.493 4.926-.068 1.288-.363 2.727-.891 4.263a41.542 41.542 0 0 0-4.491-5.3Zm-20.153 20.153a41.524 41.524 0 0 0 5.3 4.49c-.289.1-.575.192-.858.275-4.018 1.182-6.843.612-8.331-.876-1.026-1.026-1.612-2.645-1.493-4.921.067-1.29.362-2.73.891-4.268a41.454 41.454 0 0 0 4.491 5.3Zm14.534-10.118a4.5 4.5 0 1 1-9 0 4.5 4.5 0 0 1 9 0Z" clip-rule="evenodd"/><path fill="#928DD3" d="M173.92 88.627V81.03h4.284v7.596h-4.284Zm2.124-6.84c-1.992 0-3.804-.336-5.436-1.008-1.608-.696-2.988-1.644-4.14-2.844a12.976 12.976 0 0 1-2.628-4.176c-.624-1.584-.936-3.276-.936-5.076 0-1.8.312-3.48.936-5.04a12.976 12.976 0 0 1 2.628-4.176c1.152-1.2 2.532-2.136 4.14-2.808 1.632-.672 3.444-1.008 5.436-1.008 2.016 0 3.828.336 5.436 1.008 1.608.672 2.988 1.608 4.14 2.808a12.672 12.672 0 0 1 2.664 4.176c.624 1.56.936 3.24.936 5.04 0 1.8-.312 3.492-.936 5.076a12.672 12.672 0 0 1-2.664 4.176c-1.152 1.2-2.532 2.148-4.14 2.844-1.608.672-3.42 1.008-5.436 1.008Zm0-3.816c1.272 0 2.448-.228 3.528-.684a8.196 8.196 0 0 0 2.808-1.944 8.988 8.988 0 0 0 1.872-2.988c.432-1.128.648-2.352.648-3.672 0-1.32-.216-2.544-.648-3.672a8.231 8.231 0 0 0-1.872-2.916 8.196 8.196 0 0 0-2.808-1.944c-1.08-.48-2.256-.72-3.528-.72-1.272 0-2.448.24-3.528.72a8.68 8.68 0 0 0-2.808 1.944c-.792.816-1.416 1.788-1.872 2.916-.432 1.128-.648 2.352-.648 3.672 0 1.344.216 2.58.648 3.708a9.956 9.956 0 0 0 1.872 2.952 8.68 8.68 0 0 0 2.808 1.944c1.08.456 2.256.684 3.528.684Zm24.29 3.78c-1.776 0-3.324-.348-4.644-1.044-1.32-.72-2.34-1.704-3.06-2.952-.72-1.248-1.08-2.652-1.08-4.212V62.959h4.14v10.548c0 .936.204 1.764.612 2.484a4.858 4.858 0 0 0 1.692 1.656c.72.384 1.5.576 2.34.576a4.69 4.69 0 0 0 2.304-.576 4.485 4.485 0 0 0 1.692-1.656c.432-.72.648-1.548.648-2.484V62.959h4.14v10.584c0 1.56-.36 2.964-1.08 4.212-.72 1.248-1.74 2.232-3.06 2.952-1.32.696-2.868 1.044-4.644 1.044Zm12.312-.432v-18.36h4.14v18.36h-4.14Zm2.052-20.916c-.72 0-1.344-.264-1.872-.792s-.792-1.152-.792-1.872c0-.72.264-1.344.792-1.872s1.152-.792 1.872-.792c.744 0 1.368.264 1.872.792.528.528.792 1.152.792 1.872 0 .72-.264 1.344-.792 1.872-.504.528-1.128.792-1.872.792Zm8.601 20.916c-.792 0-1.5-.192-2.124-.576a4.449 4.449 0 0 1-1.512-1.548 4.3 4.3 0 0 1-.54-2.124c0-.768.192-1.464.576-2.088.384-.624.912-1.164 1.584-1.62l7.992-5.22c.24-.12.384-.252.432-.396a.959.959 0 0 0 .108-.432.793.793 0 0 0-.252-.576c-.144-.168-.348-.252-.612-.252h-8.928v-3.528h10.152c.792 0 1.488.192 2.088.576.624.384 1.116.9 1.476 1.548a4.09 4.09 0 0 1 .576 2.124c0 .768-.192 1.464-.576 2.088-.384.624-.912 1.164-1.584 1.62l-7.956 5.22c-.216.12-.372.252-.468.396a.959.959 0 0 0-.108.432c0 .216.084.408.252.576a.877.877 0 0 0 .648.252h9.432v3.528h-10.656Zm22.601.432c-1.896 0-3.576-.42-5.04-1.26a9.833 9.833 0 0 1-3.492-3.456c-.84-1.464-1.26-3.096-1.26-4.896 0-1.8.42-3.42 1.26-4.86a9.458 9.458 0 0 1 3.492-3.456c1.464-.864 3.144-1.296 5.04-1.296 1.872 0 3.54.432 5.004 1.296a9.268 9.268 0 0 1 3.456 3.42c.864 1.44 1.296 3.072 1.296 4.896 0 1.8-.432 3.432-1.296 4.896a9.543 9.543 0 0 1-3.456 3.456c-1.464.84-3.132 1.26-5.004 1.26Zm0-3.528c1.128 0 2.112-.264 2.952-.792a5.548 5.548 0 0 0 1.944-2.196c.456-.912.684-1.944.684-3.096 0-1.128-.228-2.148-.684-3.06-.456-.936-1.104-1.668-1.944-2.196-.84-.552-1.824-.828-2.952-.828-1.152 0-2.148.276-2.988.828-.816.528-1.464 1.248-1.944 2.16-.456.912-.684 1.944-.684 3.096 0 1.128.228 2.16.684 3.096a5.94 5.94 0 0 0 1.944 2.196c.84.528 1.836.792 2.988.792Z"/></g><defs><filter id="a" width="1160" height="916" x="0" y="0" color-interpolation-filters="sRGB" filterUnits="userSpaceOnUse"><feFlood flood-opacity="0" result="BackgroundImageFix"/><feColorMatrix in="SourceAlpha" result="hardAlpha" values="0 0 0 0 0 0 0 0 0 0 0 0 0 0 0 0 0 0 127 0"/><feOffset dy="12"/><feGaussianBlur stdDeviation="13.5"/><feColorMatrix values="0 0 0 0 0 0 0 0 0 0 0 0 0 0 0 0 0 0 0.03 0"/><feBlend in2="BackgroundImageFix" result="effect1_dropShadow_497_466"/><feColorMatrix in="SourceAlpha" result="hardAlpha" values="0 0 0 0 0 0 0 0 0 0 0 0 0 0 0 0 0 0 127 0"/><feOffset dy="50"/><feGaussianBlur stdDeviation="25"/><feColorMatrix values="0 0 0 0 0 0 0 0 0 0 0 0 0 0 0 0 0 0 0.03 0"/><feBlend in2="effect1_dropShadow_497_466" result="effect2_dropShadow_497_466"/><feColorMatrix in="SourceAlpha" result="hardAlpha" values="0 0 0 0 0 0 0 0 0 0 0 0 0 0 0 0 0 0 127 0"/><feOffset dy="112"/><feGaussianBlur stdDeviation="33.5"/><feColorMatrix values="0 0 0 0 0 0 0 0 0 0 0 0 0 0 0 0 0 0 0.02 0"/><feBlend in2="effect2_dropShadow_497_466" result="effect3_dropShadow_497_466"/><feBlend in="SourceGraphic" in2="effect3_dropShadow_497_466" result="shape"/></filter></defs></svg>