<svg width="32" height="32" viewBox="0 0 32 32" fill="none" xmlns="http://www.w3.org/2000/svg">
<path d="M18.7386 3.65357C21.7635 2.76389 24.9279 2.88711 26.9935 4.9524C28.4069 6.36586 28.9114 8.31893 28.805 10.3411C28.7102 12.1427 28.1327 14.0931 27.179 16.0266C27.6476 16.9764 28.0216 17.9222 28.2933 18.846C29.183 21.871 29.059 25.0353 26.9935 27.1008C24.9279 29.1663 21.7636 29.2894 18.7386 28.3997C17.8149 28.128 16.869 27.7549 15.9193 27.2864C14.9698 27.7547 14.0244 28.128 13.1009 28.3997C10.0759 29.2894 6.91061 29.1664 4.84505 27.1008C3.43271 25.6883 2.92797 23.7367 3.03352 21.7161C3.12776 19.9132 3.70606 17.9615 4.66048 16.0266C4.19198 15.0769 3.8179 14.131 3.54622 13.2073C2.65665 10.1824 2.77965 7.01787 4.84505 4.9524C6.91061 2.88683 10.0759 2.76385 13.1009 3.65357C14.0245 3.92523 14.9697 4.29941 15.9193 4.76783C16.869 4.29932 17.8149 3.92525 18.7386 3.65357ZM6.51204 19.1116C6.17043 20.1047 5.97937 21.0357 5.93587 21.8684C5.85918 23.338 6.2384 24.3838 6.90071 25.0461C7.86177 26.007 9.68618 26.3746 12.2806 25.6116C12.4634 25.5578 12.6487 25.499 12.8353 25.4348C11.6589 24.5999 10.5062 23.6282 9.41243 22.5344C8.31867 21.4407 7.34697 20.2879 6.51204 19.1116ZM12.2806 6.44165C9.68637 5.67865 7.86182 6.04639 6.90071 7.00708C5.93971 7.96808 5.57119 9.79334 6.33431 12.3879C7.0798 14.9224 8.83089 17.8435 11.4671 20.4797C12.9029 21.9155 14.4231 23.0887 15.9193 23.9797C17.4156 23.0886 18.9365 21.9156 20.3724 20.4797C20.7351 20.1171 21.0816 19.7482 21.4115 19.3752C21.9431 18.7741 22.8611 18.7177 23.4622 19.2493C24.0634 19.781 24.1199 20.6989 23.5882 21.3001C23.2189 21.7177 22.8317 22.1298 22.4271 22.5344C21.3333 23.6282 20.1806 24.5999 19.0042 25.4348C19.1909 25.499 19.376 25.5578 19.5589 25.6116C22.1535 26.3747 23.9778 26.0071 24.9388 25.0461C25.8998 24.0852 26.2673 22.2608 25.5042 19.6663C25.2361 18.7545 24.8385 17.7922 24.3158 16.8118C24.2786 16.7534 24.2454 16.6928 24.2171 16.6301C23.2926 14.9418 22.0017 13.2038 20.3724 11.5745C18.9365 10.1386 17.4156 8.96561 15.9193 8.07447C14.4231 8.96557 12.9029 10.1387 11.4671 11.5745C11.0879 11.9536 10.7264 12.3394 10.3831 12.7297C9.85322 13.3323 8.93499 13.3913 8.33235 12.8616C7.72984 12.3317 7.67083 11.4134 8.20052 10.8108C8.58493 10.3737 8.98947 9.94176 9.41243 9.5188C10.5062 8.42512 11.659 7.45328 12.8353 6.61841C12.6486 6.5542 12.4635 6.49544 12.2806 6.44165ZM15.8919 13.094C17.497 13.094 18.7982 14.3952 18.7982 16.0002C18.798 17.6052 17.4969 18.9065 15.8919 18.9065C14.2871 18.9064 12.9859 17.6051 12.9857 16.0002C12.9857 14.3952 14.287 13.0941 15.8919 13.094ZM24.9388 7.00708C23.9777 6.04631 22.1532 5.67866 19.5589 6.44165C19.376 6.49545 19.1909 6.55419 19.0042 6.61841C20.1806 7.45331 21.3333 8.42507 22.4271 9.5188C23.5209 10.6127 24.4925 11.7662 25.3275 12.9426C25.6686 11.9508 25.8589 11.0206 25.9027 10.1887C25.9801 8.71735 25.6016 7.6699 24.9388 7.00708Z" fill="#928DD3"/>
</svg>
